<svg width="1024" height="1024" viewBox="0 0 1024 1024" fill="none" xmlns="http://www.w3.org/2000/svg">
<rect width="1024" height="1024" fill="white"/>
<path d="M896 711.402V379.468C896 326.19 852.811 283 799.535 283C773.836 283 749.201 293.254 731.091 311.488L429.489 615.159C417.97 626.757 418.06 645.504 429.689 656.991L453.287 680.301C511.016 737.323 603.935 737.093 661.381 679.786L775.523 565.922C780.941 560.517 789.664 560.368 795.264 565.585C801.092 571.015 801.325 580.174 795.779 585.893L757.277 625.603C751.611 631.447 751.741 640.774 757.568 646.458L845.838 732.549C864.55 750.799 896 737.541 896 711.402Z" fill="url(#paint0_linear_2_8808)"/>
<path d="M128 313.702V644.179C128 697.573 171.283 740.857 224.676 740.857C250.254 740.857 274.789 730.72 292.909 712.667L594.291 412.39C605.913 400.811 605.872 381.978 594.2 370.449L570.713 347.249C512.984 290.226 420.065 290.456 362.619 347.763L248.477 461.628C243.059 467.033 234.336 467.182 228.736 461.965C222.908 456.534 222.675 447.376 228.221 441.656L266.851 401.815C272.467 396.022 272.396 386.795 266.691 381.09L178.426 292.815C159.818 274.205 128 287.385 128 313.702Z" fill="url(#paint1_linear_2_8808)"/>
<defs>
<linearGradient id="paint0_linear_2_8808" x1="128" y1="283" x2="906.722" y2="302.02" gradientUnits="userSpaceOnUse">
<stop stop-color="#04CF86"/>
<stop offset="1" stop-color="#03C6D2"/>
</linearGradient>
<linearGradient id="paint1_linear_2_8808" x1="128" y1="283" x2="906.722" y2="302.02" gradientUnits="userSpaceOnUse">
<stop stop-color="#04CF86"/>
<stop offset="1" stop-color="#03C6D2"/>
</linearGradient>
</defs>
</svg>
